<svg data-v-0dd9719b="" version="1.0" xmlns="http://www.w3.org/2000/svg" xmlns:xlink="http://www.w3.org/1999/xlink" width="100%" height="100%" viewBox="0 0 340.000000 250.000000" preserveAspectRatio="xMidYMid meet" color-interpolation-filters="sRGB" style="margin: auto;"> <rect data-v-0dd9719b="" x="0" y="0" width="100%" height="100%" fill="#ffffff" fill-opacity="1" class="background"></rect> <rect data-v-0dd9719b="" x="0" y="0" width="100%" height="100%" fill="url(#watermark)" fill-opacity="1" class="watermarklayer"></rect> <g data-v-0dd9719b="" fill="#fe356f" class="icon-text-wrapper icon-svg-group iconsvg" transform="translate(49.21000671386719,98.99332427978516)"><g class="iconsvg-imagesvg" transform="translate(0,0)"><g><rect fill="#fe356f" fill-opacity="0" stroke-width="2" x="0" y="0" width="60" height="52.01335009319058" class="image-rect"></rect> <svg filter="url(#colors6668924067)" x="0" y="0" width="60" height="52.01335009319058" filtersec="colorsf9337426326" class="image-svg-svg primary" style="overflow: visible;"><svg xmlns="http://www.w3.org/2000/svg" viewBox="1.5 2 122.7 106.9"><path d="M24 106.9l23.8-41.1L63 39.6l15 26.2h20.5m-50.8 0h50.8m11.9 20.5H35.9m57.3-29.8L62.9 4 32.6 56.5 3.5 106.9l118.7-.1-29-50.3zM68 65.8l-23.8 41.1" fill="none" stroke="#202121" stroke-width="4" stroke-miterlimit="10"></path></svg></svg> <defs><filter id="colors6668924067"><feColorMatrix type="matrix" values="0 0 0 0 0.22265625  0 0 0 0 0.08203125  0 0 0 0 0.37890625  0 0 0 1 0" class="icon-fecolormatrix"></feColorMatrix></filter> <filter id="colorsf9337426326"><feColorMatrix type="matrix" values="0 0 0 0 0.99609375  0 0 0 0 0.99609375  0 0 0 0 0.99609375  0 0 0 1 0" class="icon-fecolormatrix"></feColorMatrix></filter> <filter id="colorsb254164054"><feColorMatrix type="matrix" values="0 0 0 0 0  0 0 0 0 0  0 0 0 0 0  0 0 0 1 0" class="icon-fecolormatrix"></feColorMatrix></filter></defs></g></g> <g transform="translate(67,6.636674880981445)"><g data-gra="path-name" fill-rule="" class="tp-name iconsvg-namesvg"><g transform="scale(1)"><g><path d="M13.73 0.54C25.4 0.54 29.03-3.85 29.03-11.34 29.03-18.18 27.89-21.16 18.5-23.61 13.84-24.8 13.02-25.18 13.02-26.92 13.02-28.71 14.38-29.52 17.85-29.52 20.84-29.52 25.56-28.82 27.13-28.22L27.13-36.85C25.02-37.55 22.09-38.2 17.37-38.2 8.36-38.2 2.6-35.38 2.6-26.48 2.6-19.81 4.56-17.2 12.81-15.3 17.53-14.16 18.23-13.24 18.23-11.67 18.23-9.33 17.64-8.57 13.13-8.57 9.77-8.57 5.37-9.28 2.88-9.98L2.88-0.71C5.54-0.05 9.55 0.54 13.73 0.54ZM61.65-37.66L32.94-37.66 32.94-28.22 41.89-28.22 41.89 0 52.64 0 52.64-28.22 61.65-28.22ZM77.06-9.28L77.06-14.6 89.7-14.6 89.7-23.55 77.06-23.55 77.06-28.33 90.84-28.33 90.84-37.66 66.26-37.66 66.26 0 91.17 0 91.17-9.28ZM130.46 0L120.36-13.78C124.92-15.47 126.93-18.99 126.93-25.07 126.93-34.02 121.94-37.66 112.33-37.66L97.03-37.66 97.03 0 107.83 0 107.83-12.64 109.94-12.64 117.7 0ZM107.83-29.41L110.43-29.41C114.83-29.41 116.29-28.54 116.29-25.07 116.29-21.54 114.83-20.35 110.43-20.35L107.83-20.35ZM133.77 0L144.56 0 144.56-37.66 133.77-37.66ZM161.88 0.54C173.54 0.54 177.18-3.85 177.18-11.34 177.18-18.18 176.04-21.16 166.65-23.61 161.98-24.8 161.17-25.18 161.17-26.92 161.17-28.71 162.53-29.52 166-29.52 168.98-29.52 173.71-28.82 175.28-28.22L175.28-36.85C173.16-37.55 170.23-38.2 165.51-38.2 156.5-38.2 150.75-35.38 150.75-26.48 150.75-19.81 152.7-17.2 160.95-15.3 165.67-14.16 166.38-13.24 166.38-11.67 166.38-9.33 165.78-8.57 161.28-8.57 157.91-8.57 153.52-9.28 151.02-9.98L151.02-0.71C153.68-0.05 157.7 0.54 161.88 0.54Z" transform="translate(-2.5999999046325684, 38.20000076293945)"></path></g> <!----> <!----> <!----> <!----> <!----> <!----> <!----></g></g> <!----></g></g><defs v-gra="od"></defs></svg>